<?xml version="1.0" encoding="iso-8859-1"?>
<!-- Generator: Adobe Illustrator 19.0.0, SVG Export Plug-In . SVG Version: 6.00 Build 0)  -->
<svg xmlns="http://www.w3.org/2000/svg" xmlns:xlink="http://www.w3.org/1999/xlink" version="1.1" id="Layer_1" x="0px" y="0px" viewBox="0 0 511.909 511.909" style="enable-background:new 0 0 511.909 511.909;" xml:space="preserve" width="512" height="512">
<g>
	<g>
		<path style="fill:#F9EE80;" d="M363.112,271.137v-86.746h67.286C410.354,87.178,324.279,14.088,221.13,14.088    c-118.01,0-213.676,95.666-213.676,213.676c0,118.01,95.666,213.676,213.676,213.676c103.149,0,189.223-73.09,209.267-170.303    H363.112z"/>
		<path style="fill:#FFCA5E;" d="M404.268,264.208V191.32h27.435c-8.648-50.304-34.881-94.593-72.144-126.316h-3.496    c-26.437,0-49.894,15.714-59.966,40.098l-73.085,162.207l-0.238,0.594c-5.139,12.842-3.578,27.347,4.176,38.801    c7.753,11.455,20.641,18.293,34.473,18.293h36.025l-43.273,113.899c90.411-14.036,162.066-84.754,177.523-174.687H404.268z"/>
		<circle style="fill:#485C70;" cx="221.13" cy="227.764" r="170.655"/>
		<path style="fill:#F9EE80;" d="M502.672,112.788c4.834-7.745-0.734-17.784-9.864-17.784H356.062    c-14.264,0-27.091,8.683-32.391,21.926l-73.046,162.119c-3.057,7.638,2.568,15.948,10.795,15.948h66.45    c6.26,0,10.613,6.224,8.467,12.104L266.51,490.886c-1.92,5.261,4.764,9.363,8.585,5.269l221.459-226.822    c6.937-7.433,1.667-19.561-8.5-19.561h-54.63c-7.077,0-11.394-7.783-7.646-13.786L502.672,112.788z"/>
		<circle style="fill:#F9EE80;" cx="221.13" cy="226.835" r="25.405"/>
		<path style="fill:#F9EE80;" d="M267.786,107.441c-14.458-5.657-30.196-8.761-46.655-8.761s-32.198,3.104-46.655,8.761    c-8.811,3.447-13.165,13.381-9.699,22.185l18.8,47.754c10.422-7.938,23.44-12.646,37.554-12.646s27.133,4.708,37.554,12.646    l18.8-47.754C280.951,120.822,276.597,110.888,267.786,107.441z"/>
		<path style="fill:#F9EE80;" d="M165.615,254.667c-6.325-12.617-7.951-26.365-5.525-39.239l-51.115,4.595    c-9.423,0.847-16.353,9.191-15.486,18.613c1.423,15.46,5.701,30.92,13.078,45.634c7.376,14.714,17.205,27.392,28.741,37.781    c7.031,6.332,17.862,5.772,24.179-1.272l34.264-38.208C181.984,276.812,171.94,267.284,165.615,254.667z"/>
	</g>
	<g>
		<path d="M340.578,139.437c-4.142,0-7.5,3.358-7.5,7.5v9.121c0,4.142,3.358,7.5,7.5,7.5s7.5-3.358,7.5-7.5v-9.121    C348.078,142.795,344.72,139.437,340.578,139.437z"/>
		<path d="M448.864,156.057v-9.121c0-4.142-3.358-7.5-7.5-7.5s-7.5,3.358-7.5,7.5v9.121c0,4.142,3.358,7.5,7.5,7.5    S448.864,160.199,448.864,156.057z"/>
		<path d="M409.055,160.358c2.726-3.119,2.407-7.857-0.711-10.583c-3.119-2.726-7.857-2.408-10.583,0.711    c-1.632,1.867-4.107,2.938-6.791,2.938s-5.158-1.071-6.791-2.939c-2.726-3.119-7.464-3.437-10.583-0.711    s-3.437,7.464-0.711,10.583c4.481,5.127,11.073,8.067,18.084,8.067C397.983,168.426,404.575,165.485,409.055,160.358z"/>
		<path d="M221.176,193.949c-18.144,0-32.905,14.762-32.905,32.905c0,18.144,14.761,32.905,32.905,32.905    s32.905-14.761,32.905-32.905C254.082,208.711,239.32,193.949,221.176,193.949z M221.176,244.76    c-9.873,0-17.905-8.032-17.905-17.905s8.032-17.905,17.905-17.905s17.905,8.032,17.905,17.905S231.049,244.76,221.176,244.76z"/>
		<path d="M176.644,180.147c1.792,4.552,7.634,6.182,11.523,3.219c9.544-7.27,20.959-11.112,33.01-11.112    c12.05,0,23.465,3.842,33.01,11.112c3.904,2.974,9.731,1.333,11.523-3.219c0,0,18.789-47.726,18.8-47.753    c4.93-12.523-1.451-27.028-13.945-31.917c-15.732-6.155-32.348-9.276-49.388-9.276c-17.039,0-33.656,3.121-49.387,9.276    c-12.497,4.889-18.868,19.413-13.946,31.917C157.843,132.393,176.599,180.033,176.644,180.147z M172.027,119.601    c0.988-2.276,2.804-4.208,5.227-5.156c13.983-5.471,28.761-8.245,43.922-8.245c15.161,0,29.939,2.774,43.922,8.245    c4.888,1.913,7.381,7.557,5.454,12.453l-15.423,39.176c-10.312-5.795-21.885-8.821-33.953-8.821    c-12.068,0-23.64,3.026-33.953,8.821c0,0-15.381-39.068-15.423-39.176C170.877,124.553,171.029,121.901,172.027,119.601z"/>
		<path d="M91.668,221.318c-4.216,5.06-6.206,11.461-5.602,18.023c1.547,16.822,6.205,33.075,13.841,48.308    c7.636,15.232,17.872,28.687,30.426,39.993c9.978,8.986,25.819,8.157,34.782-1.838c0,0,34.17-38.103,34.263-38.208    c3.27-3.647,2.097-9.598-2.286-11.744c-10.777-5.274-19.328-13.756-24.728-24.529c-5.4-10.772-7.081-22.698-4.86-34.489    c0.906-4.81-3.179-9.298-8.041-8.859l-51.115,4.595C101.801,213.16,95.877,216.266,91.668,221.318z M103.217,230.941    c1.578-1.894,3.866-3.194,6.475-3.429l41.934-3.77c-0.559,11.815,1.922,23.517,7.331,34.305    c5.408,10.789,13.3,19.777,23.102,26.399c0,0-28.058,31.287-28.109,31.345c-3.497,3.9-9.695,4.203-13.577,0.706    c-22.327-20.113-36.616-48.61-39.369-78.529C100.762,235.346,101.631,232.844,103.217,230.941z"/>
		<path d="M492.854,87.523H392.157C349.922,36.064,287.824,6.608,221.177,6.608c-59.079,0-114.621,23.006-156.396,64.781    C23.006,113.163,0,168.705,0,227.784c0,59.079,23.006,114.621,64.781,156.395c41.774,41.775,97.317,64.781,156.396,64.781    c19.031,0,37.809-2.415,56.017-7.17l-17.684,46.544c-2.085,5.713,0.079,11.925,5.262,15.106    c5.077,3.115,11.684,2.251,15.784-2.076L382.18,397.279c2.894-2.963,2.837-7.712-0.127-10.605    c-2.963-2.894-7.712-2.837-10.605,0.127l-93.827,96.099l65.809-173.208c3.823-10.467-4.357-22.176-15.512-22.176h-66.451    c-2.812,0-4.847-2.917-3.876-5.547c0,0,72.885-161.761,72.964-161.938c4.514-10.018,14.351-17.507,25.553-17.507    c0,0,136.747,0,136.748,0c3.173,0,5.175,3.629,3.5,6.313c0,0-76.853,123.13-76.895,123.197    c-6.743,10.804,1.311,25.257,14.009,25.257h54.63c3.526,0,5.434,4.288,3.062,6.896l-98.755,101.147    c-2.894,2.964-2.837,7.712,0.127,10.605c2.962,2.894,7.711,2.837,10.605-0.127c0,0,98.905-101.301,98.944-101.342    c11.274-11.987,2.333-32.179-13.983-32.179c0,0-54.397,0-54.629,0c-1.12,0-1.938-1.268-1.285-2.315    c0,0,76.788-123.027,76.894-123.197C516.899,104.251,507.543,87.523,492.854,87.523z M356.107,87.523    c-6.722,0-13.411,1.593-19.394,4.659c-32.218-27.477-73.017-42.554-115.536-42.554c-45.585,0-88.96,17.212-122.135,48.466    c-3.015,2.84-3.156,7.587-0.316,10.602c2.84,3.015,7.586,3.157,10.602,0.316c30.381-28.622,70.104-44.384,111.85-44.384    c37.881,0,74.273,13.056,103.385,36.93c-0.623-0.462-7.128,11.08-7.745,12.449l-72.983,161.979    c-0.004,0.009-0.008,0.019-0.012,0.028c-5.433,12.149,4.652,26.5,17.646,26.5c0,0,66.45,0,66.45,0c0.951,0,1.799,0.995,1.455,1.94    l-23.964,63.074c-25.369,15.324-54.436,23.409-84.231,23.409c-89.965,0-163.156-73.191-163.156-163.155    c0-35.379,11.136-69.036,32.205-97.333c2.474-3.322,1.786-8.021-1.537-10.495s-8.021-1.786-10.495,1.537    c-23.011,30.905-35.174,67.66-35.174,106.291c0,98.235,79.92,178.155,178.156,178.155c26.487,0,52.441-5.876,76.129-17.084    l-13.452,35.406c-20.195,6.438-41.262,9.699-62.677,9.699C107.491,433.96,15,341.47,15,227.784    c0-113.686,92.491-206.176,206.177-206.176c57.901,0,112.133,23.839,151.116,65.916H356.107z"/>
	</g>
</g>















</svg>
